<?xml version="1.0" encoding="UTF-8"?>
<svg xmlns="http://www.w3.org/2000/svg" version="1.1" width="256px" height="256px"
     style="shape-rendering:geometricPrecision; text-rendering:geometricPrecision; image-rendering:optimizeQuality; fill-rule:evenodd; clip-rule:evenodd">
    <g>
        <path fill="#333333"
              d="M 118.5,-0.5 C 124.5,-0.5 130.5,-0.5 136.5,-0.5C 144.312,2.11802 150.978,6.61802 156.5,13C 178.677,10.5268 191.677,20.1935 195.5,42C 195.093,50.9785 191.593,58.4785 185,64.5C 184.814,71.4137 184.314,78.2471 183.5,85C 190.54,89.2554 193.04,95.4221 191,103.5C 188.505,109.328 184.171,112.995 178,114.5C 177.041,133.605 168.541,148.105 152.5,158C 150.398,159.733 150.065,161.733 151.5,164C 160.28,167.223 168.946,170.723 177.5,174.5C 180.038,178.061 179.204,180.728 175,182.5C 170.968,180.55 166.801,179.384 162.5,179C 156.833,184 151.167,189 145.5,194C 143.913,194.862 142.246,195.529 140.5,196C 135.585,196.26 130.919,195.593 126.5,194C 122.09,197.621 117.59,201.121 113,204.5C 111.81,208.381 111.143,212.381 111,216.5C 107.947,220.506 105.281,220.173 103,215.5C 101.376,206.982 103.876,199.982 110.5,194.5C 104.353,189.52 98.3526,184.354 92.5,179C 81.4915,181.785 70.8248,185.785 60.5,191C 57.0671,194.104 54.9004,197.937 54,202.5C 51.5,215 49,227.5 46.5,240C 46.6983,243.401 48.3649,245.734 51.5,247C 57.4908,247.499 63.4908,247.666 69.5,247.5C 69.3337,240.492 69.5004,233.492 70,226.5C 72.5918,225.018 74.9251,225.352 77,227.5C 77.4996,234.158 77.6663,240.825 77.5,247.5C 85.8333,247.5 94.1667,247.5 102.5,247.5C 102.334,242.156 102.501,236.823 103,231.5C 105.178,227.935 107.844,227.601 111,230.5C 111.499,236.157 111.666,241.824 111.5,247.5C 133.5,247.5 155.5,247.5 177.5,247.5C 177.334,240.492 177.5,233.492 178,226.5C 180.333,225.167 182.667,225.167 185,226.5C 185.5,233.492 185.666,240.492 185.5,247.5C 191.842,247.666 198.175,247.5 204.5,247C 206.921,246.002 208.255,244.168 208.5,241.5C 205.907,226.699 202.74,212.033 199,197.5C 196.635,192.804 192.968,189.471 188,187.5C 186.167,181.333 188.333,179.167 194.5,181C 200,183.833 204.167,188 207,193.5C 210.762,209.644 214.262,225.81 217.5,242C 216.68,247.981 213.68,252.481 208.5,255.5C 154.833,255.5 101.167,255.5 47.5,255.5C 41.5949,252.548 38.2616,247.714 37.5,241C 39.9918,228.541 42.4918,216.041 45,203.5C 46.0922,193.136 51.2589,185.636 60.5,181C 74.7515,175.195 89.0848,169.695 103.5,164.5C 104.571,159.402 102.571,156.236 97.5,155C 84.7042,144.576 77.8709,131.076 77,114.5C 66.3013,111.435 61.968,104.435 64,93.5C 65.2305,90.2677 67.2305,87.6011 70,85.5C 70.6667,78.5 70.6667,71.5 70,64.5C 55.6439,48.3053 56.4773,32.8053 72.5,18C 80.6867,13.6417 89.3534,11.975 98.5,13C 104.022,6.61802 110.688,2.11802 118.5,-0.5 Z M 122.5,7.5 C 134.478,6.57483 143.978,10.9082 151,20.5C 152.457,24.8842 154.29,29.0509 156.5,33C 158.235,33.6514 159.902,33.4847 161.5,32.5C 162.46,28.8614 162.46,25.1947 161.5,21.5C 178.31,21.4756 186.476,29.8089 186,46.5C 184.521,52.1191 181.521,56.7857 177,60.5C 176.667,67.5 176.333,74.5 176,81.5C 159.906,82.1631 143.739,82.4964 127.5,82.5C 111.261,82.4964 95.0942,82.1631 79,81.5C 78.6667,74.5 78.3333,67.5 78,60.5C 66.0104,49.4418 65.5104,37.9418 76.5,26C 81.5152,22.1635 87.1818,20.6635 93.5,21.5C 92.5397,25.1947 92.5397,28.8614 93.5,32.5C 95.0983,33.4847 96.765,33.6514 98.5,33C 100.92,27.3276 103.753,21.8276 107,16.5C 111.569,12.3046 116.735,9.30465 122.5,7.5 Z M 85.5,90.5 C 113.5,90.5 141.5,90.5 169.5,90.5C 170.048,102.945 169.214,115.279 167,127.5C 156.22,151.807 138.054,160.307 112.5,153C 99.1927,146.904 90.6927,136.737 87,122.5C 85.7239,111.873 85.2239,101.207 85.5,90.5 Z M 76.5,91.5 C 77.6484,95.9811 77.8151,100.648 77,105.5C 69.868,101.004 69.7014,96.3375 76.5,91.5 Z M 177.5,91.5 C 185.253,95.8591 185.42,100.526 178,105.5C 177.501,100.845 177.334,96.1785 177.5,91.5 Z M 112.5,162.5 C 122.167,165.13 131.834,165.13 141.5,162.5C 141.833,162.833 142.167,163.167 142.5,163.5C 138.102,168.229 133.102,172.229 127.5,175.5C 121.498,172.154 116.498,167.82 112.5,162.5 Z M 106.5,171.5 C 111.762,174.756 116.762,178.422 121.5,182.5C 122.214,186.923 120.214,188.423 115.5,187C 112.5,184.667 109.5,182.333 106.5,180C 104.649,178.316 102.982,176.483 101.5,174.5C 103.36,173.675 105.026,172.675 106.5,171.5 Z M 147.5,171.5 C 149.482,172.491 151.482,173.491 153.5,174.5C 149.375,178.123 145.375,181.957 141.5,186C 137.638,188.497 134.638,187.831 132.5,184C 137.378,179.616 142.378,175.449 147.5,171.5 Z"/>
        <path fill="#333333"
              d="M 93.5,58.5 C 95.2624,58.3573 96.9291,58.6906 98.5,59.5C 99.6636,65.4724 99.8303,71.4724 99,77.5C 96.6667,80.1667 94.3333,80.1667 92,77.5C 91.3333,71.8333 91.3333,66.1667 92,60.5C 92.7172,59.9558 93.2172,59.2891 93.5,58.5 Z"/>
        <path fill="#333333"
              d="M 114.5,58.5 C 117.547,57.8554 119.713,58.8554 121,61.5C 121.667,66.1667 121.667,70.8333 121,75.5C 118.719,80.1731 116.053,80.5064 113,76.5C 112.333,71.1667 112.333,65.8333 113,60.5C 113.717,59.9558 114.217,59.2891 114.5,58.5 Z"/>
        <path fill="#333333"
              d="M 135.5,58.5 C 138.044,58.1043 140.211,58.771 142,60.5C 142.667,65.8333 142.667,71.1667 142,76.5C 138.947,80.5064 136.281,80.1731 134,75.5C 132.99,69.6202 133.49,63.9536 135.5,58.5 Z"/>
        <path fill="#333333"
              d="M 157.5,58.5 C 159.722,58.178 161.556,58.8446 163,60.5C 163.667,66.1667 163.667,71.8333 163,77.5C 160.667,80.1667 158.333,80.1667 156,77.5C 154.943,70.8859 155.443,64.5526 157.5,58.5 Z"/>
        <path fill="#333333"
              d="M 120.5,210.5 C 127.676,209.985 129.342,212.818 125.5,219C 118.416,219.475 116.749,216.642 120.5,210.5 Z"/>
        <path fill="#333333"
              d="M 120.5,228.5 C 126.989,228.156 128.989,230.99 126.5,237C 118.41,238.912 116.41,236.079 120.5,228.5 Z"/>
    </g>
</svg>