<?xml version="1.0" encoding="UTF-8"?>
<svg xmlns="http://www.w3.org/2000/svg" version="1.1" width="256px" height="256px"
     style="shape-rendering:geometricPrecision; text-rendering:geometricPrecision; image-rendering:optimizeQuality; fill-rule:evenodd; clip-rule:evenodd">
    <g>
        <path fill="#333333"
              d="M 67.5,1.5 C 69.924,1.19244 72.2573,1.52577 74.5,2.5C 78.1297,15.4408 74.4631,25.9408 63.5,34C 45.4388,41.2621 32.4388,36.0954 24.5,18.5C 25.0402,17.2519 25.7069,16.0852 26.5,15C 40.3741,10.7637 54.0408,6.26375 67.5,1.5 Z M 65.5,9.5 C 66.5,9.5 67.5,9.5 68.5,9.5C 68.3564,21.7785 62.1898,28.7785 50,30.5C 42.7626,30.2458 37.2626,27.0792 33.5,21C 34.1079,20.1301 34.9412,19.6301 36,19.5C 44.3858,28.1816 53.0525,28.515 62,20.5C 63.8006,17.0062 64.9673,13.3395 65.5,9.5 Z M 56.5,12.5 C 56.7896,15.6317 55.123,17.7984 51.5,19C 48.9832,19.2566 46.6498,18.5899 44.5,17C 48.7152,15.7659 52.7152,14.2659 56.5,12.5 Z"/>
        <path style="opacity:0.832" fill="#333333"
              d="M 164.5,8.5 C 174.38,7.46632 183.047,10.133 190.5,16.5C 196.544,24.0869 197.044,32.0869 192,40.5C 187.646,45.0074 182.479,46.3407 176.5,44.5C 176.44,57.6948 170.44,61.5281 158.5,56C 155.066,50.087 155.733,44.4203 160.5,39C 150.703,33.2411 148.869,25.4077 155,15.5C 157.529,12.1151 160.696,9.78177 164.5,8.5 Z M 166.5,15.5 C 174.598,14.967 181.431,17.6336 187,23.5C 190.22,36.9529 185.553,40.9529 173,35.5C 172.228,35.6448 171.561,35.9781 171,36.5C 167,33.8333 163,31.1667 159,28.5C 158.419,22.3215 160.919,17.9882 166.5,15.5 Z M 168.5,39.5 C 169.644,43.3522 169.644,47.3522 168.5,51.5C 166.052,51.9899 164.385,51.1566 163.5,49C 165.312,45.8743 166.979,42.7077 168.5,39.5 Z"/>
        <path fill="#333333"
              d="M 223.5,14.5 C 240.578,12.2508 250.578,19.5842 253.5,36.5C 249.367,57.4009 237.367,63.9009 217.5,56C 205.03,44.303 204.364,31.9696 215.5,19C 218.099,17.205 220.766,15.705 223.5,14.5 Z M 225.5,21.5 C 237.459,19.9602 244.459,25.1269 246.5,37C 242.983,50.5921 234.649,54.9254 221.5,50C 211.309,38.8402 212.642,29.3402 225.5,21.5 Z M 228.5,34.5 C 232.161,34.3501 233.161,35.8501 231.5,39C 228.241,38.9181 227.241,37.4181 228.5,34.5 Z"/>
        <path fill="#333333"
              d="M 226.5,27.5 C 236.323,26.4882 240.489,30.8216 239,40.5C 234.754,47.0155 229.421,48.0155 223,43.5C 219.129,37.0204 220.295,31.6871 226.5,27.5 Z M 228.5,34.5 C 227.241,37.4181 228.241,38.9181 231.5,39C 233.161,35.8501 232.161,34.3501 228.5,34.5 Z"/>
        <path fill="#333333"
              d="M 118.5,39.5 C 124.875,38.0489 128.208,40.5489 128.5,47C 126.95,58.7785 120.283,63.7785 108.5,62C 104.211,51.0142 107.545,43.5142 118.5,39.5 Z M 119.5,46.5 C 120.497,46.4701 121.164,46.9701 121.5,48C 120.38,51.6206 118.046,54.1206 114.5,55.5C 113.432,53.8125 113.599,52.1459 115,50.5C 116.397,48.9297 117.897,47.5964 119.5,46.5 Z"/>
        <path fill="#333333"
              d="M 67.5,49.5 C 78.5986,47.7944 86.0986,52.1277 90,62.5C 92.3774,70.4058 89.8774,76.0725 82.5,79.5C 91.4256,92.4841 88.0923,98.9841 72.5,99C 68.5085,95.4272 66.3418,90.9272 66,85.5C 56.9195,88.6264 50.9195,85.6264 48,76.5C 45.3111,65.8995 48.8111,58.0662 58.5,53C 61.5984,51.7724 64.5984,50.6057 67.5,49.5 Z M 68.5,56.5 C 78.2906,55.462 83.124,59.7953 83,69.5C 79.0552,72.0802 75.2219,74.7469 71.5,77.5C 70.8333,77.1667 70.1667,76.8333 69.5,76.5C 57.8073,82.6176 52.974,79.2843 55,66.5C 58.3688,61.5728 62.8688,58.2395 68.5,56.5 Z M 73.5,80.5 C 76.1783,83.332 78.5116,86.4987 80.5,90C 79.0726,92.3692 77.2393,92.8692 75,91.5C 73.8924,87.9137 73.3924,84.247 73.5,80.5 Z"/>
        <path fill="#333333"
              d="M 13.5,55.5 C 24.1092,55.2768 29.7759,60.4434 30.5,71C 31.1778,78.6613 27.8444,81.6613 20.5,80C 10.0312,74.235 7.69791,66.0684 13.5,55.5 Z M 17.5,63.5 C 22.1867,65.2032 24.0201,68.5366 23,73.5C 18.8263,71.488 16.9929,68.1547 17.5,63.5 Z"/>
        <path fill="#333333"
              d="M 200.5,61.5 C 203.325,61.0807 205.491,62.0807 207,64.5C 218.269,81.3564 219.936,99.023 212,117.5C 194.901,137.449 175.734,139.616 154.5,124C 143.392,113.951 138.225,101.451 139,86.5C 152.296,80.2668 166.13,78.4334 180.5,81C 188.333,75.6663 195,69.1663 200.5,61.5 Z M 196.5,76.5 C 196.614,83.4718 195.447,90.4718 193,97.5C 190.404,106.814 186.571,115.481 181.5,123.5C 172.601,112.559 172.435,101.559 181,90.5C 186.362,85.9676 191.528,81.301 196.5,76.5 Z M 204.5,76.5 C 208.671,83.5198 210.504,91.1865 210,99.5C 206.622,102.023 202.955,104.023 199,105.5C 201.291,95.9872 203.124,86.3206 204.5,76.5 Z M 166.5,86.5 C 169.059,86.3896 171.392,87.0562 173.5,88.5C 171.527,91.2458 170.027,94.2458 169,97.5C 167.347,94.0736 166.513,90.4069 166.5,86.5 Z M 156.5,87.5 C 157.5,87.5 158.5,87.5 159.5,87.5C 159.75,90.214 159.917,92.8806 160,95.5C 156.833,93.6667 153.667,91.8333 150.5,90C 152.611,89.1553 154.611,88.322 156.5,87.5 Z M 146.5,96.5 C 153.145,99.8223 159.811,103.156 166.5,106.5C 168.14,112.919 170.473,119.086 173.5,125C 159.236,120.745 150.236,111.245 146.5,96.5 Z M 190.5,124.5 C 191.77,120.793 193.437,117.293 195.5,114C 209.879,106.752 211.213,108.752 199.5,120C 196.757,122.038 193.757,123.538 190.5,124.5 Z"/>
        <path fill="#333333"
              d="M 234.5,73.5 C 243.473,73.9802 246.973,78.6469 245,87.5C 242.103,92.1549 237.937,93.6549 232.5,92C 227.008,88.8582 225.508,84.3582 228,78.5C 229.805,76.1743 231.972,74.5077 234.5,73.5 Z M 235.5,80.5 C 239.234,81.9737 239.4,83.6404 236,85.5C 234.831,84.9915 233.998,84.1581 233.5,83C 234.381,82.2917 235.047,81.4584 235.5,80.5 Z"/>
        <path fill="#333333"
              d="M 105.5,85.5 C 118.313,85.1242 121.98,90.6242 116.5,102C 111.266,105.555 106.433,105.055 102,100.5C 99.3466,94.5426 100.513,89.5426 105.5,85.5 Z M 108.5,92.5 C 113.049,92.9323 113.549,94.5989 110,97.5C 107.491,96.347 106.991,94.6803 108.5,92.5 Z"/>
        <path fill="#333333"
              d="M 21.5,97.5 C 40.6369,98.4696 49.1369,108.47 47,127.5C 40.3446,141.725 29.5113,146.225 14.5,141C 1.95285,132.374 -0.880484,121.207 6,107.5C 10.2391,102.479 15.4057,99.146 21.5,97.5 Z M 22.5,104.5 C 38.3598,106.221 43.5265,114.555 38,129.5C 28.2896,139.162 19.2896,138.496 11,127.5C 7.41319,116.007 11.2465,108.34 22.5,104.5 Z M 23.5,118.5 C 26.1662,118.066 27.3329,119.066 27,121.5C 23.4034,123.066 22.2368,122.066 23.5,118.5 Z"/>
        <path fill="#333333"
              d="M 72.5,109.5 C 82.4301,108.549 90.5968,111.883 97,119.5C 110.761,114.963 120.261,119.463 125.5,133C 137.18,134.848 143.513,141.681 144.5,153.5C 179.502,153.333 214.502,153.5 249.5,154C 252.229,155.639 253.562,158.139 253.5,161.5C 253.276,185.701 244.609,206.201 227.5,223C 215.61,231.685 202.277,235.852 187.5,235.5C 186.279,244.556 181.279,250.389 172.5,253C 142.5,253.667 112.5,253.667 82.5,253C 73.7211,250.389 68.7211,244.556 67.5,235.5C 36.0454,234.852 15.5454,219.519 6,189.5C 2.64735,178.29 1.64735,166.957 3,155.5C 3.75044,154.874 4.58377,154.374 5.5,154C 25.8306,153.5 46.1639,153.333 66.5,153.5C 66.1065,150.07 66.7732,146.904 68.5,144C 58.6517,135.292 56.985,125.292 63.5,114C 66.324,111.921 69.324,110.421 72.5,109.5 Z M 73.5,116.5 C 82.8035,116.151 89.8035,119.985 94.5,128C 95.8333,128.667 97.1667,128.667 98.5,128C 104.985,122.994 110.818,123.827 116,130.5C 117.725,133.674 119.058,137.007 120,140.5C 123.888,140.815 127.721,141.315 131.5,142C 134.399,144.962 136.399,148.462 137.5,152.5C 131.193,153.664 124.859,153.831 118.5,153C 113.341,150.588 108.341,147.921 103.5,145C 96.9455,140.269 90.2789,135.769 83.5,131.5C 82.5581,131.608 81.7247,131.941 81,132.5C 80.3333,134.167 80.3333,135.833 81,137.5C 88.0651,143.284 95.5651,148.45 103.5,153C 93.5056,153.5 83.5056,153.666 73.5,153.5C 73.3433,152.127 73.51,150.793 74,149.5C 75.4038,147.606 76.5705,145.606 77.5,143.5C 74.2357,140.058 71.069,136.391 68,132.5C 64.5572,125.065 66.3905,119.732 73.5,116.5 Z M 8.5,160.5 C 87.8333,160.5 167.167,160.5 246.5,160.5C 245.756,164.119 245.423,167.785 245.5,171.5C 235.251,171.181 225.084,171.514 215,172.5C 214.257,174.441 214.424,176.274 215.5,178C 225.167,178.333 234.833,178.667 244.5,179C 238.236,210.268 219.236,226.935 187.5,229C 147.5,229.667 107.5,229.667 67.5,229C 35.7681,226.939 16.7681,210.272 10.5,179C 72.5,178.667 134.5,178.333 196.5,178C 198.922,176.112 198.922,174.112 196.5,172C 134.168,171.5 71.8342,171.333 9.5,171.5C 9.57695,167.785 9.24362,164.119 8.5,160.5 Z M 75.5,236.5 C 110.173,236.167 144.84,236.5 179.5,237.5C 176.977,243.195 172.644,246.362 166.5,247C 153.5,247.167 140.5,247.333 127.5,247.5C 112.79,247.624 98.1231,247.124 83.5,246C 79.5299,243.869 76.8633,240.702 75.5,236.5 Z"/>
        <path fill="#333333"
              d="M 20.5,111.5 C 31.1566,109.658 35.6566,113.991 34,124.5C 32.2003,128.235 29.2003,129.902 25,129.5C 17.6739,128.874 14.6739,124.874 16,117.5C 17.332,115.34 18.832,113.34 20.5,111.5 Z M 23.5,118.5 C 22.2368,122.066 23.4034,123.066 27,121.5C 27.3329,119.066 26.1662,118.066 23.5,118.5 Z"/>
        <path fill="#333333"
              d="M 231.5,111.5 C 241.629,113.73 245.796,120.063 244,130.5C 241.967,138.741 237.467,140.574 230.5,136C 225.979,131.377 224.479,125.877 226,119.5C 227.117,116.241 228.95,113.574 231.5,111.5 Z M 233.5,119.5 C 237.77,122.515 238.436,126.182 235.5,130.5C 232.36,127.331 231.693,123.664 233.5,119.5 Z"/>
        <path fill="#333333"
              d="M 204.5,171.5 C 208.935,171.752 210.268,173.919 208.5,178C 202.681,178.526 201.348,176.359 204.5,171.5 Z"/>
        <path fill="#333333"
              d="M 238.5,218.5 C 241.85,218.335 245.183,218.502 248.5,219C 249.76,220.814 249.76,222.647 248.5,224.5C 245.562,225.575 242.562,225.741 239.5,225C 237.166,223.158 236.832,220.991 238.5,218.5 Z"/>
        <path fill="#333333"
              d="M 234.5,228.5 C 241.388,228.703 244.055,232.036 242.5,238.5C 238.898,239.289 236.065,237.955 234,234.5C 233.322,232.402 233.489,230.402 234.5,228.5 Z"/>
        <path fill="#333333"
              d="M 223.5,233.5 C 225.467,233.261 227.301,233.594 229,234.5C 229.824,237.882 229.657,241.216 228.5,244.5C 226.091,245.722 224.258,245.055 223,242.5C 222.366,239.445 222.532,236.445 223.5,233.5 Z"/>
    </g>
</svg>